<svg fill="#ffffff" xmlns="http://www.w3.org/2000/svg"  viewBox="0 0 26 26" width="18px" height="18px"><path d="M 25.089844 15.714844 C 25.277344 14.882813 25.371094 14.019531 25.371094 13.132813 C 25.371094 6.5 19.894531 1.121094 13.136719 1.121094 C 12.425781 1.121094 11.726563 1.183594 11.042969 1.296875 C 9.949219 0.621094 8.65625 0.230469 7.269531 0.230469 C 3.351563 0.230469 0.175781 3.347656 0.175781 7.195313 C 0.175781 8.480469 0.527344 9.683594 1.152344 10.71875 C 0.988281 11.5 0.902344 12.308594 0.902344 13.132813 C 0.902344 19.769531 6.378906 25.148438 13.136719 25.148438 C 13.902344 25.148438 14.652344 25.078125 15.378906 24.945313 C 16.375 25.472656 17.519531 25.773438 18.734375 25.773438 C 22.652344 25.773438 25.828125 22.65625 25.828125 18.808594 C 25.824219 17.695313 25.5625 16.644531 25.089844 15.714844 Z M 19.410156 18.875 C 18.847656 19.660156 18.011719 20.285156 16.925781 20.726563 C 15.855469 21.164063 14.566406 21.386719 13.105469 21.386719 C 11.347656 21.386719 9.871094 21.085938 8.722656 20.484375 C 7.902344 20.050781 7.222656 19.457031 6.710938 18.730469 C 6.1875 17.996094 5.925781 17.265625 5.925781 16.558594 C 5.925781 16.121094 6.097656 15.738281 6.433594 15.425781 C 6.769531 15.113281 7.199219 14.960938 7.710938 14.960938 C 8.132813 14.960938 8.492188 15.082031 8.789063 15.324219 C 9.070313 15.558594 9.3125 15.90625 9.507813 16.355469 C 9.722656 16.84375 9.960938 17.253906 10.210938 17.578125 C 10.449219 17.890625 10.796875 18.152344 11.234375 18.355469 C 11.679688 18.5625 12.277344 18.667969 13.011719 18.667969 C 14.023438 18.667969 14.851563 18.457031 15.476563 18.039063 C 16.085938 17.632813 16.382813 17.140625 16.382813 16.539063 C 16.382813 16.0625 16.226563 15.691406 15.910156 15.398438 C 15.578125 15.09375 15.136719 14.855469 14.605469 14.691406 C 14.046875 14.523438 13.289063 14.339844 12.359375 14.144531 C 11.089844 13.878906 10.011719 13.5625 9.152344 13.203125 C 8.273438 12.839844 7.566406 12.328125 7.050781 11.695313 C 6.523438 11.050781 6.261719 10.238281 6.261719 9.285156 C 6.261719 8.378906 6.539063 7.558594 7.09375 6.855469 C 7.636719 6.15625 8.4375 5.609375 9.46875 5.234375 C 10.480469 4.867188 11.691406 4.679688 13.054688 4.679688 C 14.148438 4.679688 15.109375 4.804688 15.910156 5.050781 C 16.71875 5.296875 17.398438 5.628906 17.933594 6.039063 C 18.472656 6.453125 18.871094 6.894531 19.121094 7.351563 C 19.375 7.816406 19.503906 8.277344 19.503906 8.722656 C 19.503906 9.152344 19.335938 9.539063 19.003906 9.882813 C 18.667969 10.222656 18.242188 10.394531 17.746094 10.394531 C 17.292969 10.394531 16.9375 10.289063 16.691406 10.074219 C 16.460938 9.875 16.222656 9.566406 15.960938 9.121094 C 15.65625 8.550781 15.285156 8.101563 14.863281 7.785156 C 14.453125 7.480469 13.761719 7.324219 12.820313 7.324219 C 11.941406 7.324219 11.230469 7.496094 10.699219 7.835938 C 10.1875 8.164063 9.941406 8.542969 9.941406 8.988281 C 9.941406 9.261719 10.019531 9.492188 10.183594 9.6875 C 10.359375 9.894531 10.605469 10.078125 10.914063 10.230469 C 11.238281 10.390625 11.566406 10.515625 11.898438 10.605469 C 12.238281 10.699219 12.808594 10.835938 13.59375 11.015625 C 14.582031 11.222656 15.492188 11.453125 16.296875 11.707031 C 17.109375 11.964844 17.816406 12.277344 18.390625 12.644531 C 18.976563 13.019531 19.441406 13.5 19.769531 14.074219 C 20.101563 14.652344 20.265625 15.363281 20.265625 16.191406 C 20.269531 17.183594 19.980469 18.085938 19.410156 18.875 Z"/></svg>